<mxfile host="app.diagrams.net" agent="Mozilla/5.0 (Macintosh; Intel Mac OS X 10_15_7) AppleWebKit/537.36 (KHTML, like Gecko) Chrome/140.0.0.0 Safari/537.36" version="28.2.0">
  <diagram name="Page-1" id="1SaJK4QJmozZwHA5n9lj">
    <mxGraphModel dx="1773" dy="535" grid="1" gridSize="10" guides="1" tooltips="1" connect="1" arrows="1" fold="1" page="1" pageScale="1" pageWidth="827" pageHeight="1169" math="0" shadow="0">
      <root>
        <mxCell id="0" />
        <mxCell id="1" parent="0" />
        <mxCell id="1xBhV_vblewTtPQ-xvQc-46" value="" style="rounded=0;whiteSpace=wrap;html=1;fillColor=light-dark(#A20025,#FFE6EA);fontColor=#ffffff;strokeColor=#6F0000;" parent="1" vertex="1">
          <mxGeometry x="-240" y="260" width="1000" height="500" as="geometry" />
        </mxCell>
        <mxCell id="1xBhV_vblewTtPQ-xvQc-44" value="" style="rounded=0;whiteSpace=wrap;html=1;fillColor=#1ba1e2;fontColor=#ffffff;strokeColor=#006EAF;" parent="1" vertex="1">
          <mxGeometry x="560" y="520" width="140" height="100" as="geometry" />
        </mxCell>
        <mxCell id="1xBhV_vblewTtPQ-xvQc-42" value="" style="rounded=0;whiteSpace=wrap;html=1;fillColor=#1ba1e2;fontColor=#ffffff;strokeColor=#006EAF;" parent="1" vertex="1">
          <mxGeometry x="560" y="280" width="140" height="100" as="geometry" />
        </mxCell>
        <mxCell id="1xBhV_vblewTtPQ-xvQc-41" value="" style="rounded=0;whiteSpace=wrap;html=1;fillColor=#1ba1e2;fontColor=#ffffff;strokeColor=#006EAF;" parent="1" vertex="1">
          <mxGeometry x="350" y="350" width="140" height="180" as="geometry" />
        </mxCell>
        <mxCell id="1xBhV_vblewTtPQ-xvQc-1" value="triangle" style="rounded=0;whiteSpace=wrap;html=1;fillColor=#008a00;fontColor=#ffffff;strokeColor=light-dark(#005700,#000000);strokeWidth=1;" parent="1" vertex="1">
          <mxGeometry x="-70" y="350" width="80" height="40" as="geometry" />
        </mxCell>
        <mxCell id="1xBhV_vblewTtPQ-xvQc-2" value="" style="endArrow=classic;html=1;rounded=0;strokeColor=light-dark(#000000,#000000);strokeWidth=2;" parent="1" edge="1">
          <mxGeometry width="50" height="50" relative="1" as="geometry">
            <mxPoint y="370" as="sourcePoint" />
            <mxPoint x="50" y="370" as="targetPoint" />
          </mxGeometry>
        </mxCell>
        <mxCell id="1xBhV_vblewTtPQ-xvQc-5" value="" style="rounded=0;whiteSpace=wrap;html=1;fillColor=#1ba1e2;fontColor=#ffffff;strokeColor=#006EAF;" parent="1" vertex="1">
          <mxGeometry x="50" y="350" width="120" height="120" as="geometry" />
        </mxCell>
        <mxCell id="1xBhV_vblewTtPQ-xvQc-6" value="points" style="rounded=0;whiteSpace=wrap;html=1;fillColor=#008a00;fontColor=#ffffff;strokeColor=light-dark(#000000,#000000);" parent="1" vertex="1">
          <mxGeometry x="70" y="395" width="80" height="40" as="geometry" />
        </mxCell>
        <mxCell id="1xBhV_vblewTtPQ-xvQc-7" value="ArrayList&amp;lt;Point&amp;gt;&amp;nbsp;&lt;div&gt;reference&lt;/div&gt;" style="text;html=1;align=center;verticalAlign=middle;resizable=0;points=[];autosize=1;strokeColor=none;fillColor=none;" parent="1" vertex="1">
          <mxGeometry x="50" y="430" width="120" height="40" as="geometry" />
        </mxCell>
        <mxCell id="1xBhV_vblewTtPQ-xvQc-8" value="Shape&lt;div&gt;reference&lt;/div&gt;" style="text;html=1;align=center;verticalAlign=middle;resizable=0;points=[];autosize=1;fontColor=light-dark(#000000,#000000);" parent="1" vertex="1">
          <mxGeometry x="-65" y="390" width="70" height="40" as="geometry" />
        </mxCell>
        <mxCell id="1xBhV_vblewTtPQ-xvQc-9" value="Shape&amp;nbsp;&lt;div&gt;instance&lt;/div&gt;" style="text;html=1;align=center;verticalAlign=middle;resizable=0;points=[];autosize=1;strokeWidth=0;fontColor=light-dark(#000000,#000000);" parent="1" vertex="1">
          <mxGeometry x="80" y="470" width="70" height="40" as="geometry" />
        </mxCell>
        <mxCell id="1xBhV_vblewTtPQ-xvQc-10" value="length = 3" style="rounded=0;whiteSpace=wrap;html=1;fillColor=#fa6800;fontColor=#000000;strokeColor=#C73500;" parent="1" vertex="1">
          <mxGeometry x="360" y="360" width="120" height="40" as="geometry" />
        </mxCell>
        <mxCell id="1xBhV_vblewTtPQ-xvQc-11" value="&lt;div&gt;&lt;span style=&quot;background-color: transparent; color: light-dark(rgb(255, 255, 255), rgb(18, 18, 18));&quot;&gt;Point reference&lt;/span&gt;&lt;/div&gt;" style="rounded=0;whiteSpace=wrap;html=1;fillColor=#008a00;fontColor=#ffffff;strokeColor=light-dark(#005700,#000000);strokeWidth=1;" parent="1" vertex="1">
          <mxGeometry x="360" y="400" width="120" height="40" as="geometry" />
        </mxCell>
        <mxCell id="1xBhV_vblewTtPQ-xvQc-17" value="&lt;div&gt;&lt;span style=&quot;background-color: transparent; color: light-dark(rgb(255, 255, 255), rgb(18, 18, 18));&quot;&gt;Point&lt;/span&gt;&lt;span style=&quot;background-color: transparent; color: light-dark(rgb(255, 255, 255), rgb(18, 18, 18));&quot;&gt;&amp;nbsp;reference&lt;/span&gt;&lt;/div&gt;" style="rounded=0;whiteSpace=wrap;html=1;fillColor=#008a00;fontColor=#ffffff;strokeColor=light-dark(#005700,#000000);strokeWidth=1;" parent="1" vertex="1">
          <mxGeometry x="360" y="440" width="120" height="40" as="geometry" />
        </mxCell>
        <mxCell id="1xBhV_vblewTtPQ-xvQc-18" value="&lt;div&gt;&lt;br&gt;&lt;/div&gt;Point&amp;nbsp;reference" style="rounded=0;whiteSpace=wrap;html=1;fillColor=#008a00;fontColor=#ffffff;strokeColor=light-dark(#005700,#000000);strokeWidth=1;" parent="1" vertex="1">
          <mxGeometry x="360" y="480" width="120" height="40" as="geometry" />
        </mxCell>
        <mxCell id="1xBhV_vblewTtPQ-xvQc-21" value="" style="endArrow=classic;html=1;rounded=0;strokeColor=light-dark(#000000,#000000);strokeWidth=2;" parent="1" edge="1">
          <mxGeometry width="50" height="50" relative="1" as="geometry">
            <mxPoint x="470" y="410" as="sourcePoint" />
            <mxPoint x="560" y="320" as="targetPoint" />
          </mxGeometry>
        </mxCell>
        <mxCell id="1xBhV_vblewTtPQ-xvQc-23" value="" style="endArrow=classic;html=1;rounded=0;strokeColor=light-dark(#000000,#000000);strokeWidth=2;" parent="1" edge="1">
          <mxGeometry width="50" height="50" relative="1" as="geometry">
            <mxPoint x="470" y="490" as="sourcePoint" />
            <mxPoint x="560" y="560" as="targetPoint" />
          </mxGeometry>
        </mxCell>
        <mxCell id="1xBhV_vblewTtPQ-xvQc-25" value="x = 3" style="rounded=0;whiteSpace=wrap;html=1;fillColor=#fa6800;fontColor=#000000;strokeColor=#C73500;" parent="1" vertex="1">
          <mxGeometry x="570" y="290" width="120" height="40" as="geometry" />
        </mxCell>
        <mxCell id="1xBhV_vblewTtPQ-xvQc-26" value="y = 1" style="rounded=0;whiteSpace=wrap;html=1;fillColor=#fa6800;fontColor=#000000;strokeColor=#C73500;" parent="1" vertex="1">
          <mxGeometry x="570" y="330" width="120" height="40" as="geometry" />
        </mxCell>
        <mxCell id="1xBhV_vblewTtPQ-xvQc-28" value="Point&amp;nbsp;&lt;div&gt;instance&lt;/div&gt;" style="text;html=1;align=center;verticalAlign=middle;resizable=0;points=[];autosize=1;fontColor=light-dark(#000000,#000000);" parent="1" vertex="1">
          <mxGeometry x="695" y="310" width="70" height="40" as="geometry" />
        </mxCell>
        <mxCell id="1xBhV_vblewTtPQ-xvQc-32" value="x = 5" style="rounded=0;whiteSpace=wrap;html=1;fillColor=#fa6800;fontColor=#000000;strokeColor=#C73500;" parent="1" vertex="1">
          <mxGeometry x="570" y="530" width="120" height="40" as="geometry" />
        </mxCell>
        <mxCell id="1xBhV_vblewTtPQ-xvQc-33" value="y =&amp;nbsp;" style="rounded=0;whiteSpace=wrap;html=1;fillColor=#fa6800;fontColor=#000000;strokeColor=#C73500;" parent="1" vertex="1">
          <mxGeometry x="570" y="570" width="120" height="40" as="geometry" />
        </mxCell>
        <mxCell id="1xBhV_vblewTtPQ-xvQc-34" value="Point&amp;nbsp;&lt;div&gt;instance&lt;/div&gt;" style="text;html=1;align=center;verticalAlign=middle;resizable=0;points=[];autosize=1;fontColor=light-dark(#000000,#000000);" parent="1" vertex="1">
          <mxGeometry x="695" y="550" width="70" height="40" as="geometry" />
        </mxCell>
        <mxCell id="1xBhV_vblewTtPQ-xvQc-38" value="" style="endArrow=classic;html=1;rounded=0;strokeColor=light-dark(#000000,#000000);strokeWidth=2;" parent="1" edge="1">
          <mxGeometry width="50" height="50" relative="1" as="geometry">
            <mxPoint x="130" y="410" as="sourcePoint" />
            <mxPoint x="200" y="380" as="targetPoint" />
          </mxGeometry>
        </mxCell>
        <mxCell id="1xBhV_vblewTtPQ-xvQc-40" value="Point[ ] instance" style="text;html=1;align=center;verticalAlign=middle;resizable=0;points=[];autosize=1;fontColor=light-dark(#000000,#000000);" parent="1" vertex="1">
          <mxGeometry x="365" y="530" width="110" height="30" as="geometry" />
        </mxCell>
        <mxCell id="O0ka0zd7lV6jPTSnZ0zU-1" value="" style="rounded=0;whiteSpace=wrap;html=1;fillColor=#1ba1e2;fontColor=#ffffff;strokeColor=#006EAF;" parent="1" vertex="1">
          <mxGeometry x="560" y="400" width="140" height="100" as="geometry" />
        </mxCell>
        <mxCell id="O0ka0zd7lV6jPTSnZ0zU-2" value="" style="endArrow=classic;html=1;rounded=0;strokeColor=light-dark(#000000,#000000);strokeWidth=2;" parent="1" edge="1">
          <mxGeometry width="50" height="50" relative="1" as="geometry">
            <mxPoint x="470" y="460" as="sourcePoint" />
            <mxPoint x="560" y="440" as="targetPoint" />
          </mxGeometry>
        </mxCell>
        <mxCell id="O0ka0zd7lV6jPTSnZ0zU-3" value="x = 4" style="rounded=0;whiteSpace=wrap;html=1;fillColor=#fa6800;fontColor=#000000;strokeColor=#C73500;" parent="1" vertex="1">
          <mxGeometry x="570" y="410" width="120" height="40" as="geometry" />
        </mxCell>
        <mxCell id="O0ka0zd7lV6jPTSnZ0zU-4" value="y = 1" style="rounded=0;whiteSpace=wrap;html=1;fillColor=#fa6800;fontColor=#000000;strokeColor=#C73500;" parent="1" vertex="1">
          <mxGeometry x="570" y="450" width="120" height="40" as="geometry" />
        </mxCell>
        <mxCell id="O0ka0zd7lV6jPTSnZ0zU-5" value="Point&amp;nbsp;&lt;div&gt;instance&lt;/div&gt;" style="text;html=1;align=center;verticalAlign=middle;resizable=0;points=[];autosize=1;fontColor=light-dark(#000000,#000000);" parent="1" vertex="1">
          <mxGeometry x="695" y="430" width="70" height="40" as="geometry" />
        </mxCell>
        <mxCell id="kIgNERQ6bzLBY2BLzkZo-1" value="" style="rounded=0;whiteSpace=wrap;html=1;fillColor=#1ba1e2;fontColor=#ffffff;strokeColor=#006EAF;" vertex="1" parent="1">
          <mxGeometry x="200" y="350" width="120" height="80" as="geometry" />
        </mxCell>
        <mxCell id="kIgNERQ6bzLBY2BLzkZo-2" value="elements" style="rounded=0;whiteSpace=wrap;html=1;fillColor=#008a00;fontColor=#ffffff;strokeColor=light-dark(#000000,#000000);" vertex="1" parent="1">
          <mxGeometry x="220" y="360" width="80" height="40" as="geometry" />
        </mxCell>
        <mxCell id="kIgNERQ6bzLBY2BLzkZo-3" value="Point[ ] reference" style="text;html=1;align=center;verticalAlign=middle;resizable=0;points=[];autosize=1;strokeColor=none;fillColor=none;" vertex="1" parent="1">
          <mxGeometry x="205" y="400" width="110" height="30" as="geometry" />
        </mxCell>
        <mxCell id="kIgNERQ6bzLBY2BLzkZo-4" value="ArrayList&amp;lt;Point&amp;gt;&lt;div&gt;instance&lt;/div&gt;" style="text;html=1;align=center;verticalAlign=middle;resizable=0;points=[];autosize=1;strokeWidth=0;fontColor=light-dark(#000000,#000000);" vertex="1" parent="1">
          <mxGeometry x="210" y="425" width="110" height="40" as="geometry" />
        </mxCell>
        <mxCell id="kIgNERQ6bzLBY2BLzkZo-5" value="" style="endArrow=classic;html=1;rounded=0;strokeColor=light-dark(#000000,#000000);strokeWidth=2;" edge="1" parent="1">
          <mxGeometry width="50" height="50" relative="1" as="geometry">
            <mxPoint x="290" y="380" as="sourcePoint" />
            <mxPoint x="350" y="380" as="targetPoint" />
          </mxGeometry>
        </mxCell>
        <mxCell id="kIgNERQ6bzLBY2BLzkZo-7" value="isClosed = true" style="rounded=0;whiteSpace=wrap;html=1;fillColor=#fa6800;fontColor=#000000;strokeColor=light-dark(#000000,#000000);strokeWidth=1;" vertex="1" parent="1">
          <mxGeometry x="70" y="360" width="80" height="35" as="geometry" />
        </mxCell>
      </root>
    </mxGraphModel>
  </diagram>
</mxfile>
